# xmcd
#
# Track frame offsets:
#	150
#	11888
#	22918
#	40677
#	60671
#	75640
#	86341
#	107733
#	120335
#	135521
#	148035
#	165040
#	176677
#	187177
#
# Disc length: 2653 seconds
#
# Revision: 0
# Processed by: cddbd v1.5.1PL0 Copyright (c) Steve Scherf et al.
# Submitted via: audiograbber 1.81.03
#
DISCID=a70a5b0e
DTITLE=Rural Delivery - Check's In The Mail
DYEAR=1999
DGENRE=Bluegrass
TTITLE0=Don't Laugh
TTITLE1=New York Chimes
TTITLE2=Where the Wild River Rolls
TTITLE3=Billy McGee (The Drummer Boy)
TTITLE4=Check's in the Mail (Coombs See Coombs Saw)
TTITLE5=Where No One Stands Alone
TTITLE6=Restless
TTITLE7=Blue Night
TTITLE8=Closed til Further Notice
TTITLE9=Cherokee Shuffle
TTITLE10=Here in the Real World
TTITLE11=Eastbound Freight
TTITLE12=The Lifeguard
TTITLE13=Price I Pay
EXTD=
EXTT0=
EXTT1=
EXTT2=
EXTT3=
EXTT4=
EXTT5=
EXTT6=
EXTT7=
EXTT8=
EXTT9=
EXTT10=
EXTT11=
EXTT12=
EXTT13=
PLAYORDER=
